<?xml version="1.0" encoding="UTF-8" standalone="no"?>
<svg
   xmlns:dc="http://purl.org/dc/elements/1.1/"
   xmlns:cc="http://creativecommons.org/ns#"
   xmlns:rdf="http://www.w3.org/1999/02/22-rdf-syntax-ns#"
   xmlns:svg="http://www.w3.org/2000/svg"
   xmlns="http://www.w3.org/2000/svg"
   xmlns:sodipodi="http://sodipodi.sourceforge.net/DTD/sodipodi-0.dtd"
   xmlns:inkscape="http://www.inkscape.org/namespaces/inkscape"
   version="1.0"
   width="88.000000pt"
   height="88.000000pt"
   viewBox="0 0 88.000000 88.000000"
   preserveAspectRatio="xMidYMid meet"
   id="svg6"
   sodipodi:docname="logo.svg"
   inkscape:version="1.0.2 (e86c870879, 2021-01-15)">
  <metadata
     id="metadata12">
    <rdf:RDF>
      <cc:Work
         rdf:about="">
        <dc:format>image/svg+xml</dc:format>
        <dc:type
           rdf:resource="http://purl.org/dc/dcmitype/StillImage" />
      </cc:Work>
    </rdf:RDF>
  </metadata>
  <defs
     id="defs10" />
  <sodipodi:namedview
     pagecolor="#ffffff"
     bordercolor="#666666"
     borderopacity="1"
     objecttolerance="10"
     gridtolerance="10"
     guidetolerance="10"
     inkscape:pageopacity="0"
     inkscape:pageshadow="2"
     inkscape:window-width="1600"
     inkscape:window-height="1137"
     id="namedview8"
     showgrid="false"
     inkscape:zoom="6.2642045"
     inkscape:cx="58.666667"
     inkscape:cy="58.666667"
     inkscape:window-x="-8"
     inkscape:window-y="-8"
     inkscape:window-maximized="1"
     inkscape:current-layer="svg6" />
  <g
     transform="translate(0.000000,88.000000) scale(0.100000,-0.100000)"
     fill="#000000"
     stroke="none"
     id="g4">
    <path
       d="M260 776 c0 -65 -19 -75 -74 -37 -24 17 -51 31 -58 31 -19 0 -108 -92 -108 -112 0 -9 9 -18 21 -20 17 -2 29 -24 61 -113 36 -101 39 -114 29 -153 -24 -91 15 -326 55 -339 23 -8 36 77 29 185 l-8 105 29 -7 c16 -4 31 -9 33 -12 2 -2 -8 -22 -23 -45 -36 -53 -26 -64 72 -78 45 -7 82 -18 88 -26 14 -19 73 -20 88 -1 6 7 40 23 76 36 91 32 98 40 76 87 l-17 37 38 33 c21 18 40 32 44 33 3 0 30 61 60 135 51 127 56 135 82 135 44 0 34 33 -27 84 -29 25 -57 46 -62 46 -6 0 -30 -20 -54 -45 l-44 -45 -33 32 c-24 23 -33 41 -33 65 l0 33 -170 0 -170 0 0 -44z m100 9 c0 -3 -16 -22 -35 -42 l-35 -37 0 42 c0 41 1 42 35 42 19 0 35 -2 35 -5z m210 -25 c0 -16 -2 -30 -4 -30 -2 0 -20 14 -41 30 l-38 30 42 0 c39 0 41 -2 41 -30z m-121 -9 c16 -10 6 -51 -13 -51 -8 0 -19 7 -26 15 -10 12 -10 18 0 30 14 17 20 18 39 6z m-245 -72 c-3 -5 -35 -9 -72 -9 l-66 0 33 34 34 35 38 -26 c21 -14 36 -29 33 -34z m606 31 l34 -30 -74 0 -74 0 29 30 c16 17 34 30 39 30 6 -1 27 -14 46 -30z m-190 -15 c10 -12 10 -15 -4 -15 -9 0 -16 7 -16 15 0 8 2 15 4 15 2 0 9 -7 16 -15z m-360 -15 c0 -5 -5 -10 -11 -10 -5 0 -7 5 -4 10 3 6 8 10 11 10 2 0 4 -4 4 -10z m115 0 c3 -5 -3 -10 -15 -10 -12 0 -18 5 -15 10 3 6 10 10 15 10 5 0 12 -4 15 -10z m229 -86 c31 -67 31 -69 8 -99 l-19 -23 -18 31 c-10 18 -35 58 -56 90 l-38 57 49 0 49 0 25 -56z m94 4 c-12 -29 -24 -56 -28 -61 -4 -4 -18 20 -33 53 l-26 60 54 0 54 0 -21 -52z m89 40 c-3 -7 -24 -60 -47 -118 -36 -93 -81 -163 -94 -149 -2 2 17 58 43 124 26 66 50 128 54 138 3 9 16 17 28 17 13 0 19 -5 16 -12z m-602 -145 c62 -140 65 -167 16 -125 -28 23 -115 274 -94 270 9 -2 42 -63 78 -145z m71 115 c-27 -65 -39 -88 -46 -88 -6 0 -50 98 -50 113 0 4 25 7 55 7 l55 0 -14 -32z m123 15 c-8 -9 -30 -50 -49 -92 l-36 -75 -22 31 -22 31 26 61 27 61 45 0 c40 0 43 -2 31 -17z m129 -67 c15 -25 17 -36 9 -40 -7 -2 -4 -5 5 -5 10 -1 24 -13 32 -29 11 -22 12 -31 1 -45 -7 -9 -16 -17 -21 -17 -14 0 -65 90 -51 90 6 0 -1 10 -16 21 -27 20 -27 22 -11 40 23 26 29 24 52 -15z m-96 13 l20 -11 -21 -22 c-12 -12 -19 -25 -15 -28 4 -5 -29 -83 -42 -97 -2 -3 -10 4 -18 15 -12 16 -12 23 2 49 9 16 16 32 17 35 1 12 28 70 32 70 2 0 13 -5 25 -11z m62 -121 l34 -53 -30 -44 -30 -43 -36 36 -36 35 29 61 c16 33 30 60 32 60 2 0 18 -24 37 -52z m85 -112 c12 -18 21 -36 21 -40 0 -3 -25 -6 -56 -6 l-56 0 32 40 c17 22 33 40 35 40 2 0 13 -15 24 -34z m-180 -54 c-28 -2 -53 -1 -56 1 -2 3 4 21 13 41 l18 36 38 -37 39 -38 -52 -3z m245 -30 c5 -9 -92 -48 -99 -40 -2 2 -2 14 2 26 4 18 12 22 49 22 23 0 45 -4 48 -8z m-246 -27 c13 -28 15 -28 -90 -9 -46 9 -23 34 31 34 41 0 49 -3 59 -25z"
       id="path2" />
  </g>
  <path
     style="fill:#ffff00;stroke-width:0.159637;fill-opacity:1"
     d="m 77.356338,51.266176 c -2.351441,-4.092392 -5.578065,-9.249234 -9.534736,-15.238567 -1.874398,-2.837333 -3.407997,-5.189986 -3.407997,-5.228118 0,-0.03813 2.860793,-0.06933 6.357317,-0.06933 h 6.357316 l 2.131066,4.749206 c 3.325793,7.411726 3.843966,8.650053 4.191673,10.017234 0.383643,1.508485 0.264517,2.453847 -0.46713,3.707048 -0.4422,0.757424 -3.329931,4.443647 -3.746136,4.781988 -0.174496,0.14185 -0.545109,-0.393857 -1.881373,-2.719459 z"
     id="path839"
     transform="scale(0.74999998)" />
  <path
     style="fill:#ffff00;fill-opacity:1;stroke-width:0.159637"
     d="m 86.483447,67.967717 c -0.371705,-0.12797 -0.202054,-0.91214 0.915493,-4.231618 1.454246,-4.319585 2.797081,-7.878715 7.815205,-20.713877 4.627445,-11.835901 4.336579,-11.275311 6.218875,-11.985731 1.36946,-0.516863 3.16722,-0.219188 3.47194,0.574887 0.1093,0.284849 -7.342058,19.034325 -9.02735,22.715044 -3.698255,8.077081 -7.887339,14.160066 -9.394163,13.641295 z"
     id="path841"
     transform="scale(0.74999998)" />
  <path
     style="fill:#ffff00;fill-opacity:1;stroke-width:0.159637"
     d="M 88.968718,45.563353 C 88.59158,45.352296 87.254575,43.204303 86.244306,41.186395 85.49072,39.681183 81.654422,30.999963 81.654422,30.799873 c 0,-0.03834 3.168502,-0.06971 7.041115,-0.06971 5.568672,0 7.024568,0.04173 6.961984,0.199546 -2.854702,7.198683 -5.602482,13.595788 -6.21627,14.472092 -0.154285,0.220273 -0.28671,0.265548 -0.472533,0.161556 z"
     id="path843"
     transform="scale(0.74999998)" />
  <path
     style="fill:#ffff00;fill-opacity:1;stroke-width:0.159637"
     d="m 94.073318,25.502041 c 1.496922,-1.683903 4.800665,-4.859884 5.87947,-5.6521 1.663912,-1.221889 1.751512,-1.234288 3.214192,-0.454939 1.66139,0.885226 3.80813,2.499966 6.65112,5.002856 1.27986,1.126759 2.32702,2.078596 2.32702,2.115193 0,0.0366 -4.28168,0.06654 -9.51485,0.06654 h -9.514851 z"
     id="path847"
     transform="scale(0.74999998)" />
  <path
     style="fill:#ffff00;fill-opacity:1;stroke-width:0.159637"
     d="m 81.17551,26.299979 c -0.765884,-0.382602 -1.159123,-1.184024 -1.055093,-2.150284 0.04463,-0.414539 0.163907,-0.908349 0.265061,-1.097357 0.176215,-0.32926 0.2325,-0.29539 1.344126,0.808816 0.638116,0.633857 1.315709,1.42914 1.505763,1.767295 0.341562,0.607727 0.341924,0.61677 0.03135,0.782985 -0.475001,0.254213 -1.46482,0.201458 -2.091204,-0.111455 z"
     id="path849"
     transform="scale(0.74999998)" />
  <path
     style="fill:#ffff00;fill-opacity:1;stroke-width:0.159637"
     d="m 72.609994,17.848675 c -1.476032,-1.114386 -3.762419,-2.881274 -5.080858,-3.926419 l -2.397163,-1.900264 4.390022,0.06659 c 6.378774,0.09676 6.305669,0.05216 6.305669,3.84678 0,2.464176 -0.148484,3.939467 -0.396497,3.939467 -0.07561,0 -1.345141,-0.91177 -2.821173,-2.026154 z"
     id="path851"
     transform="scale(0.74999998)" />
  <path
     style="fill:#ffff00;fill-opacity:1;stroke-width:0.159637"
     d="m 56.592579,23.376733 c -1.024157,-0.564452 -1.610176,-1.088916 -2.25454,-2.017722 -0.650093,-0.937065 -0.721589,-1.457652 -0.31078,-2.262903 0.539652,-1.057807 2.229896,-2.686075 2.923358,-2.81617 1.041146,-0.19532 2.923802,0.782053 3.540541,1.838058 0.529474,0.906584 0.438509,2.582018 -0.21192,3.903226 -0.929345,1.887767 -2.003992,2.282893 -3.686659,1.355511 z"
     id="path853"
     transform="scale(0.74999998)" />
  <path
     style="fill:#ffff00;fill-opacity:1;stroke-width:0.159637"
     d="m 38.758508,18.517914 c 0.06198,-5.131422 0.150299,-5.578039 1.20311,-6.083748 0.758959,-0.364559 3.737264,-0.487816 5.828319,-0.241204 1.698482,0.200313 2.021401,0.289679 2.021401,0.559409 0,0.423986 -3.086365,3.941664 -7.579758,8.639012 l -1.527058,1.596372 z"
     id="path855"
     transform="scale(0.74999998)" />
  <path
     style="fill:#ffff00;fill-opacity:1;stroke-width:0.159637"
     d="m 46.494331,27.605744 c -0.280994,-0.152442 -0.439002,-0.369222 -0.439002,-0.602291 0,-0.631371 1.184305,-1.541321 2.006037,-1.541321 0.751545,0 1.984893,0.989901 1.984893,1.593101 0,0.09218 -0.23347,0.309949 -0.518821,0.483932 -0.640689,0.390635 -2.36597,0.428506 -3.033107,0.06658 z"
     id="path857"
     transform="scale(0.74999998)" />
  <path
     style="fill:#ffff00;fill-opacity:1;stroke-width:0.159637"
     d="m 32.669668,27.585725 c -0.206148,-0.368366 0.03691,-0.963158 0.655792,-1.604773 0.574371,-0.595471 0.8369,-0.64697 1.070737,-0.210041 0.290668,0.543117 0.192834,1.274525 -0.226582,1.693942 -0.463375,0.463374 -1.271815,0.528522 -1.499947,0.120872 z"
     id="path859"
     transform="scale(0.74999998)" />
  <path
     style="fill:#ffff00;fill-opacity:1;stroke-width:0.159637"
     d="m 10.228824,26.69932 c 0.606137,-0.636554 2.547383,-2.645738 4.313881,-4.464855 l 3.211815,-3.307486 2.935892,2.009721 c 4.099107,2.805981 5.771087,4.190335 6.319324,5.232228 0.225556,0.428654 0.222975,0.484112 -0.03119,0.669958 -0.413802,0.30258 -2.175419,0.663734 -4.151592,0.851129 -0.965168,0.09152 -4.442554,0.166468 -7.727526,0.166541 l -5.9726754,1.33e-4 z"
     id="path861"
     transform="scale(0.74999998)" />
  <path
     style="fill:#ffff00;fill-opacity:1;stroke-width:0.159637"
     d="m 29.948805,70.391755 c -0.806517,-0.350059 -2.629454,-1.747884 -3.405502,-2.611333 -2.549719,-2.836879 -8.58064,-18.055231 -11.614488,-29.30786 -0.852686,-3.162636 -1.19929,-5.820009 -0.791947,-6.071761 0.997127,-0.616258 7.268111,11.554918 13.142777,25.508448 3.373337,8.012361 4.459796,11.698119 3.678567,12.479348 -0.301223,0.301224 -0.322525,0.30129 -1.009407,0.0032 z"
     id="path863"
     transform="scale(0.74999998)" />
  <path
     style="fill:#ffff00;fill-opacity:1;stroke-width:0.159637"
     d="m 27.663243,47.479753 c -1.41582,-1.880333 -6.192041,-12.92833 -6.192041,-14.322965 0,-0.727967 1.927911,-0.965479 8.899773,-1.096421 3.007166,-0.05648 5.467574,-0.06118 5.467574,-0.01046 0,0.05073 -0.403053,1.013719 -0.895672,2.139982 -0.492619,1.126263 -1.396552,3.233057 -2.008739,4.681764 -1.691276,4.002316 -3.517033,7.648911 -4.229927,8.448461 l -0.629535,0.706057 z"
     id="path865"
     transform="scale(0.74999998)" />
  <path
     style="fill:#ffff00;fill-opacity:1;stroke-width:0.159637"
     d="m 36.325561,52.321564 c -1.532053,-2.161004 -2.775631,-4.041892 -2.763506,-4.179752 0.02545,-0.28942 2.722234,-6.620421 5.233853,-12.287071 l 1.726339,-3.894919 4.807707,0.08714 c 3.834387,0.0695 4.927728,0.137287 5.400554,0.334846 0.326067,0.136239 0.592848,0.315091 0.592848,0.397449 0,0.08236 -0.245742,0.499085 -0.546095,0.92606 -1.997335,2.839376 -3.241801,5.188242 -7.762977,14.652222 -2.010041,4.20753 -3.710544,7.704745 -3.778896,7.77159 -0.06835,0.06684 -1.377775,-1.646559 -2.909827,-3.807563 z"
     id="path867"
     transform="scale(0.74999998)" />
  <path
     style="fill:#ffff00;fill-opacity:1;stroke-width:0.159637"
     d="m 45.977862,61.739683 c -0.960416,-0.974158 -1.948087,-2.455125 -2.158515,-3.236595 -0.261015,-0.969336 0.01617,-1.779747 1.917795,-5.607082 0.965207,-1.942641 1.754921,-3.668605 1.754921,-3.835477 0,-0.694464 2.226009,-5.8657 3.362868,-7.812271 0.607657,-1.040454 0.690403,-1.118623 1.082021,-1.022175 0.478422,0.117826 3.923871,1.795973 4.882886,2.378268 l 0.627548,0.381035 -1.674348,1.734518 c -2.674931,2.771057 -3.272638,3.678742 -3.106519,4.717596 0.12095,0.756379 -0.151088,1.750858 -1.214568,4.440051 -1.580102,3.995559 -3.994809,8.620408 -4.500852,8.620408 -0.124111,0 -0.562067,-0.341224 -0.973237,-0.758276 z"
     id="path869"
     transform="scale(0.74999998)" />
  <path
     style="fill:#ffff00;fill-opacity:1;stroke-width:0.159637"
     d="M 54.969479,71.389169 50.23465,66.728345 50.931745,65.29161 c 2.561581,-5.279503 6.646233,-13.497881 6.931199,-13.945673 0.322415,-0.506639 0.357354,-0.521525 0.634781,-0.270457 0.551969,0.499525 6.47872,9.325844 8.752951,13.035193 l 0.352581,0.575071 -1.457802,2.138761 c -2.106809,3.090926 -6.380223,9.244095 -6.413107,9.234052 -0.01542,-0.0047 -2.158713,-2.105934 -4.762869,-4.669388 z"
     id="path871"
     transform="scale(0.74999998)" />
  <path
     style="fill:#ffff00;fill-opacity:1;stroke-width:0.159637"
     d="m 70.324699,60.647221 c -1.74179,-1.573602 -4.901027,-6.800876 -5.894815,-9.75356 -0.340143,-1.010615 -0.314354,-1.485951 0.08062,-1.485951 0.448723,0 0.202717,-0.673245 -0.533673,-1.460505 -0.415827,-0.444553 -1.479472,-1.36674 -2.363656,-2.049304 -2.750397,-2.123226 -2.771485,-2.402537 -0.378864,-5.018056 1.191551,-1.302556 1.981766,-1.848552 2.675391,-1.848552 0.473135,0 0.698916,0.137586 1.380423,0.841203 1.213293,1.252656 3.650153,5.413528 4.058383,6.929579 0.218974,0.813209 0.02347,1.417901 -0.541674,1.675398 -0.720761,0.328401 -0.421711,0.766283 0.528672,0.774106 1.764802,0.01452 4.23258,2.73562 5.303277,5.847656 0.412812,1.199859 0.39196,1.905299 -0.08459,2.861599 -0.713171,1.431149 -2.583821,3.260028 -3.334484,3.260028 -0.143035,0 -0.545791,-0.258138 -0.895014,-0.573641 z"
     id="path873"
     transform="scale(0.74999998)" />
  <path
     style="fill:#ffff00;fill-opacity:1;stroke-width:0.159637"
     d="m 69.989246,88.727606 c -0.186883,-0.491541 -0.02082,-1.815595 0.416614,-3.32171 0.331206,-1.140368 1.125699,-2.026081 2.073023,-2.311038 0.957566,-0.288038 5.345356,-0.393663 7.233691,-0.174132 1.774772,0.206328 3.140274,0.552538 3.318837,0.841459 0.436769,0.706706 -6.273521,3.879354 -10.561268,4.993405 -1.998398,0.519228 -2.27403,0.516118 -2.480897,-0.02798 z"
     id="path875"
     transform="scale(0.74999998)" />
  <path
     style="fill:#ffff00;fill-opacity:1;stroke-width:0.159637"
     d="m 62.75963,78.421769 c 0.37617,-0.620996 6.664682,-8.335966 7.559885,-9.274736 l 1.065678,-1.117541 0.651303,0.86598 c 1.72081,2.288006 5.148084,8.139398 5.148084,8.789332 0,0.598084 -3.569336,0.927555 -10.106473,0.932889 -3.510266,0.0029 -4.414056,-0.03814 -4.318477,-0.195924 z"
     id="path877"
     transform="scale(0.74999998)" />
  <path
     style="fill:#ffff00;fill-opacity:1;stroke-width:0.159637"
     d="m 43.393806,79.578751 c -0.398382,-0.160587 -0.393963,-0.201984 0.238535,-2.234533 0.232238,-0.746304 1.141805,-2.811321 2.021259,-4.588927 l 1.599008,-3.232011 4.964734,4.828382 c 2.730604,2.655611 4.952044,4.845855 4.936534,4.867208 -0.01551,0.02135 -1.746783,0.146363 -3.847274,0.277797 -4.167381,0.260766 -9.362795,0.303787 -9.912796,0.08208 z"
     id="path879"
     transform="scale(0.74999998)" />
  <path
     style="fill:#ffffff;fill-opacity:1;stroke-width:0.159637"
     d="m 48.130612,90.103273 c -1.687048,-0.205881 -9.305326,-1.550211 -10.456236,-1.84512 -1.202149,-0.308039 -2.061643,-0.782972 -2.332352,-1.288795 -0.326941,-0.610897 0.06833,-1.149561 1.294711,-1.764413 1.692348,-0.848464 2.99121,-1.05891 6.545124,-1.060462 3.807445,-0.0017 4.784375,0.210628 5.843578,1.269831 0.649629,0.649629 1.899409,2.987693 2.080183,3.891568 0.166773,0.833859 -0.722673,1.072257 -2.975008,0.797391 z"
     id="path881"
     transform="scale(0.74999998)" />
  <path
     style="fill:#ffffff;fill-opacity:1;stroke-width:0.159637"
     d="m 48.130612,90.103273 c -1.687048,-0.205881 -9.305326,-1.550211 -10.456236,-1.84512 -1.202149,-0.308039 -2.061643,-0.782972 -2.332352,-1.288795 -0.326941,-0.610897 0.06833,-1.149561 1.294711,-1.764413 1.692348,-0.848464 2.99121,-1.05891 6.545124,-1.060462 3.807445,-0.0017 4.784375,0.210628 5.843578,1.269831 0.649629,0.649629 1.899409,2.987693 2.080183,3.891568 0.166773,0.833859 -0.722673,1.072257 -2.975008,0.797391 z"
     id="path883"
     transform="scale(0.74999998)" />
  <path
     style="fill:#ffffff;fill-opacity:1;stroke-width:0.159637"
     d="m 43.357661,79.43287 c -0.186302,-0.11796 -0.150572,-0.374614 0.215688,-1.549339 0.394335,-1.264769 1.969932,-4.831542 3.220605,-7.290676 l 0.470238,-0.924606 4.812603,4.67608 c 2.646931,2.571843 4.763508,4.72173 4.703504,4.777526 -0.355822,0.330871 -12.93108,0.622251 -13.422638,0.311015 z"
     id="path885"
     transform="scale(0.74999998)" />
  <path
     style="fill:#ffffff;fill-opacity:1;stroke-width:0.159637"
     d="m 55.012058,71.308165 -4.692251,-4.5821 3.829315,-7.7564 c 2.106124,-4.26602 3.909826,-7.806158 4.008228,-7.866973 0.231848,-0.14329 1.226744,1.214229 4.607516,6.286877 4.366753,6.552054 4.750367,7.195527 4.517522,7.577659 -0.295104,0.48431 -6.981926,10.166101 -7.301971,10.572462 -0.27525,0.349484 -0.2907,0.336325 -4.968359,-4.231525 z"
     id="path887"
     transform="scale(0.74999998)" />
  <path
     style="fill:#ffffff;fill-opacity:1;stroke-width:0.159637"
     d="m 64.852608,78.496521 c -1.031656,-0.02474 -1.875737,-0.08624 -1.875737,-0.136665 0,-0.225207 6.913174,-8.681584 7.79525,-9.535355 l 0.638153,-0.617676 0.732773,0.995401 c 1.747956,2.374431 4.918514,7.857891 4.846185,8.381447 -0.06646,0.481079 -1.45302,0.703493 -4.99286,0.80089 -1.668209,0.0459 -3.535964,0.09999 -4.150567,0.120194 -0.614603,0.02021 -1.961542,0.0165 -2.993197,-0.0082 z"
     id="path889"
     transform="scale(0.74999998)" />
  <path
     style="fill:#ffffff;fill-opacity:1;stroke-width:0.159637"
     d="m 70.097805,88.74522 c -0.24653,-0.642447 0.168014,-2.997903 0.719523,-4.088353 0.761653,-1.50595 1.872106,-1.791628 6.52689,-1.679123 3.202643,0.07741 5.087246,0.341328 5.506798,0.771174 0.59303,0.607579 -6.364073,3.884893 -10.475002,4.934506 -1.502135,0.383529 -2.148026,0.401049 -2.278209,0.0618 z"
     id="path891"
     transform="scale(0.74999998)" />
  <path
     style="fill:#ffffff;fill-opacity:1;stroke-width:0.159637"
     d="m 86.443537,67.436794 c 0,-1.044557 2.410457,-7.823487 6.751377,-18.986907 5.342105,-13.738138 6.06419,-15.493636 6.73439,-16.372313 0.858606,-1.125687 3.735566,-1.59749 4.581686,-0.751366 l 0.34103,0.341035 -0.52463,1.407195 c -0.87689,2.352021 -5.950347,15.10264 -7.261223,18.248918 -3.308364,7.940517 -7.702996,15.241702 -9.856425,16.375337 -0.628689,0.330961 -0.766205,0.283956 -0.766205,-0.261899 z"
     id="path893"
     transform="scale(0.74999998)" />
  <path
     style="fill:#ffffff;fill-opacity:1;stroke-width:0.159637"
     d="m 88.485529,44.862642 c -0.791742,-1.117889 -1.974218,-3.291482 -2.955253,-5.432257 -1.744374,-3.806502 -3.728742,-8.42164 -3.653429,-8.496952 0.100744,-0.100745 13.488691,-0.114531 13.589228,-0.01399 0.127477,0.127476 -3.671812,9.35576 -5.311334,12.900969 -0.87197,1.885499 -1.010647,1.972087 -1.669212,1.042234 z"
     id="path895"
     transform="scale(0.74999998)" />
  <path
     style="fill:#ffffff;fill-opacity:1;stroke-width:0.159637"
     d="m 78.925067,53.614324 c -0.139618,-0.162527 -1.27897,-2.019585 -2.531893,-4.126796 -2.449712,-4.120013 -5.39553,-8.788198 -9.318233,-14.76644 l -2.46158,-3.751473 3.611687,-0.11917 c 1.986428,-0.06554 4.790251,-0.101462 6.230718,-0.07982 l 2.619031,0.03935 1.89688,4.230386 c 4.816491,10.741648 5.092744,11.624039 4.223172,13.489342 -0.376473,0.807563 -2.26408,3.410232 -3.398217,4.685526 -0.590844,0.664383 -0.628755,0.681741 -0.871565,0.399093 z"
     id="path897"
     transform="scale(0.74999998)" />
  <path
     style="fill:#ffffff;fill-opacity:1;stroke-width:0.159637"
     d=""
     id="path899"
     transform="scale(0.74999998)" />
  <path
     style="fill:#ffffff;fill-opacity:1;stroke-width:0.159637"
     d="m 70.410541,60.570153 c -1.744098,-1.531337 -5.446688,-7.751293 -6.00868,-10.093939 -0.166404,-0.693649 -0.157604,-0.810922 0.07043,-0.938534 0.685172,-0.383442 0.04017,-1.351429 -2.019289,-3.030455 -0.897177,-0.731446 -1.900618,-1.590837 -2.22987,-1.909759 -0.985295,-0.954385 -0.814692,-1.590095 0.934859,-3.483501 1.873756,-2.027825 2.752644,-2.354897 3.81693,-1.420442 1.228624,1.078746 4.162768,6.129335 4.343455,7.476459 0.07544,0.562465 0.02647,0.689255 -0.431395,1.116969 -0.284074,0.265364 -0.481558,0.573533 -0.438853,0.684819 0.0427,0.111286 0.480672,0.286874 0.973262,0.390196 0.492591,0.103322 1.210636,0.404595 1.595656,0.669496 1.80671,1.243049 3.77298,4.624788 3.77298,6.489053 0,1.223385 -1.153514,3.028797 -2.608631,4.08288 -0.800674,0.580005 -1.078339,0.574792 -1.770851,-0.03324 z"
     id="path901"
     transform="scale(0.74999998)" />
  <path
     style="fill:#ffffff;fill-opacity:1;stroke-width:0.159637"
     d="m 45.773949,61.303514 c -1.081103,-1.179834 -1.953541,-2.697088 -1.953541,-3.397399 0,-0.703746 0.300793,-1.452288 2.052432,-5.107613 0.872644,-1.821035 1.671869,-3.634239 1.776056,-4.029341 0.237805,-0.90182 1.578263,-4.11445 2.426383,-5.81523 0.904793,-1.814433 1.448313,-2.644924 1.731202,-2.645256 0.225084,-2.63e-4 4.738511,2.17334 5.250658,2.528644 0.179161,0.124293 -0.129608,0.533275 -1.482282,1.963371 -0.93972,0.993507 -1.974046,2.191818 -2.298503,2.662914 -0.523123,0.759551 -0.601616,1.003971 -0.69321,2.158598 -0.07936,1.000356 -0.279438,1.764438 -0.863488,3.297526 -1.575386,4.13527 -4.255252,9.418594 -4.777402,9.418594 -0.12105,0 -0.646788,-0.465663 -1.168305,-1.034808 z"
     id="path903"
     transform="scale(0.74999998)" />
  <path
     style="fill:#ffffff;fill-opacity:1;stroke-width:0.159637"
     d="m 38.950657,55.731352 c -0.08735,-0.121814 -0.810852,-1.109569 -1.607779,-2.195011 -0.796928,-1.08544 -1.965072,-2.740702 -2.595876,-3.678359 l -1.146917,-1.704827 1.504258,-3.563199 c 2.009757,-4.760591 5.334332,-12.297928 5.495444,-12.45904 0.07106,-0.07106 2.27946,-0.06534 4.907561,0.0127 4.575298,0.135861 5.656371,0.265589 5.656371,0.678761 0,0.06893 -0.580637,1.009231 -1.290304,2.089568 -1.234306,1.879001 -3.392904,6.098856 -8.660388,16.930236 -1.099496,2.260862 -2.022588,4.110657 -2.051316,4.110657 -0.02873,0 -0.123702,-0.09967 -0.211054,-0.221482 z"
     id="path905"
     transform="scale(0.74999998)" />
  <path
     style="fill:#ffffff;fill-opacity:1;stroke-width:0.159637"
     d="m 27.544612,47.103431 c -1.488906,-2.164051 -5.782109,-12.18248 -5.817726,-13.575989 -0.01533,-0.599716 0.01785,-0.646242 0.598344,-0.839195 0.946584,-0.314635 4.5444,-0.518408 9.180285,-0.519952 3.30272,-0.0011 4.190354,0.04151 4.127566,0.198145 -0.04399,0.10975 -0.992567,2.31873 -2.107939,4.908843 -2.319048,5.385285 -4.134443,9.068197 -4.915064,9.971242 l -0.538451,0.622896 z"
     id="path907"
     transform="scale(0.74999998)" />
  <path
     style="fill:#ffffff;fill-opacity:1;stroke-width:0.159637"
     d="m 30.09161,70.363146 c -0.599147,-0.228861 -2.242104,-1.467272 -3.114345,-2.3475 -1.127689,-1.138017 -2.131269,-2.89004 -3.815203,-6.660475 -3.976839,-8.904403 -8.540109,-22.653966 -8.998389,-27.112994 -0.214019,-2.082392 -0.04886,-2.208381 1.00978,-0.770315 3.856267,5.238368 15.364571,30.881718 15.821614,35.254475 0.159893,1.529761 -0.07406,1.953619 -0.903457,1.636809 z"
     id="path909"
     transform="scale(0.74999998)" />
  <path
     style="fill:#ffffff;fill-opacity:1;stroke-width:0.159637"
     d="m 10.133328,26.95956 c 0.480904,-0.516284 2.395419,-2.510885 4.254479,-4.432446 l 3.380109,-3.493747 2.051189,1.40793 c 4.827759,3.31376 7.335482,5.441654 7.20591,6.114473 -0.0643,0.333879 -1.582511,0.74958 -3.530306,0.966632 -0.805627,0.08977 -4.338246,0.211069 -7.850265,0.269542 l -6.3854871,0.106314 z"
     id="path911"
     transform="scale(0.74999998)" />
  <path
     style="fill:#ffffff;fill-opacity:1;stroke-width:0.159637"
     d="m 32.709063,27.472005 c -0.191678,-0.499505 0.97428,-1.976323 1.424056,-1.803727 0.534142,0.204969 0.31323,1.695371 -0.28534,1.925064 -0.461114,0.176946 -1.048262,0.114382 -1.138716,-0.121337 z"
     id="path913"
     transform="scale(0.74999998)" />
  <path
     style="fill:#ffffff;fill-opacity:1;stroke-width:0.159637"
     d=""
     id="path915"
     transform="scale(0.74999998)" />
  <path
     style="fill:#ffffff;fill-opacity:1;stroke-width:0.159637"
     d="m 38.818705,20.986661 c 0.02752,-1.006609 0.07399,-3.051423 0.103262,-4.544031 0.08112,-4.136375 0.09623,-4.150567 4.41953,-4.150567 3.087228,0 4.310204,0.136311 4.310204,0.480406 0,0.381379 -3.073403,3.905931 -7.301963,8.37383 l -1.581072,1.670561 z"
     id="path917"
     transform="scale(0.74999998)" />
  <path
     style="fill:#ffffff;fill-opacity:1;stroke-width:0.159637"
     d="m 46.494331,27.532987 c -0.824025,-0.504605 0.345244,-1.911218 1.588729,-1.911218 0.555801,0 1.582741,0.673203 1.728763,1.133278 0.194598,0.613122 -0.271206,0.857413 -1.726756,0.9056 -0.73431,0.02431 -1.434304,-0.03187 -1.590736,-0.12766 z"
     id="path919"
     transform="scale(0.74999998)" />
  <path
     style="fill:#ffffff;fill-opacity:1;stroke-width:0.159637"
     d="m 56.812837,23.380879 c -1.465515,-0.725429 -2.935286,-2.445939 -2.935286,-3.436038 0,-1.11926 2.358009,-3.582029 3.429658,-3.582029 0.745428,0 2.406794,0.887094 2.918149,1.558159 0.387308,0.508275 0.436774,0.710532 0.436774,1.785909 0,1.048953 -0.07101,1.356932 -0.525838,2.280639 -0.28921,0.587356 -0.711959,1.214323 -0.939442,1.393262 -0.538352,0.423467 -1.528639,0.423508 -2.384015,9.8e-5 z"
     id="path921"
     transform="scale(0.74999998)" />
  <path
     style="fill:#ffffff;fill-opacity:1;stroke-width:0.159637"
     d="m 72.454771,17.592589 c -1.569126,-1.181216 -3.816765,-2.910951 -4.994754,-3.843855 l -2.141796,-1.696189 3.179438,0.08293 c 6.160669,0.160692 6.588864,0.240312 7.035597,1.308211 0.207392,0.495763 0.240364,1.085371 0.18346,3.280667 -0.04104,1.583276 -0.138722,2.745633 -0.23918,2.846091 -0.119987,0.119986 -1.006868,-0.460318 -3.022765,-1.977857 z"
     id="path923"
     transform="scale(0.74999998)" />
  <path
     style="fill:#ffffff;fill-opacity:1;stroke-width:0.159637"
     d="m 81.137608,26.170061 c -0.815962,-0.442736 -1.16826,-1.789972 -0.753406,-2.881121 l 0.166514,-0.437966 1.036164,1.026214 c 1.20504,1.193468 1.897947,2.133605 1.749526,2.373756 -0.154347,0.249737 -1.693834,0.193107 -2.198798,-0.08088 z"
     id="path925"
     transform="scale(0.74999998)" />
  <path
     style="fill:#ffffff;fill-opacity:1;stroke-width:0.159637"
     d="m 93.934508,25.795711 c 1.154584,-1.379024 5.565338,-5.552525 6.594462,-6.239746 0.80225,-0.535726 1.08682,-0.645595 1.47241,-0.568479 1.14427,0.228856 4.09844,2.316118 7.69517,5.437004 l 2.20772,1.915646 -4.30951,0.09866 c -2.37022,0.05426 -6.56109,0.108142 -9.313026,0.119728 l -5.003528,0.02107 z"
     id="path927"
     transform="scale(0.74999998)" />
</svg>
